<?xml version="1.0" encoding="UTF-8" standalone="no"?>
<!DOCTYPE svg PUBLIC "-//W3C//DTD SVG 1.1//EN" "http://www.w3.org/Graphics/SVG/1.1/DTD/svg11.dtd">
<!-- Generated by graphviz version 2.40.1 (20161225.0304)
 -->
<!-- Title: G Pages: 1 -->
<svg width="5269pt" height="944pt" viewBox="0.00 0.00 5269.40 944.00" xmlns="http://www.w3.org/2000/svg" xmlns:xlink="http://www.w3.org/1999/xlink">
<g id="graph0" class="graph" transform="scale(1 1) rotate(0) translate(4 940)">
<title>G</title>
<polygon fill="#ffffff" stroke="transparent" points="-4,4 -4,-940 5265.3976,-940 5265.3976,4 -4,4"/>
<g id="clust1" class="cluster">
<title>cluster_0</title>
<polygon fill="none" stroke="#000000" points="18.3976,-666.4 18.3976,-892 1083.3976,-892 1083.3976,-666.4 18.3976,-666.4"/>
<text text-anchor="middle" x="550.8976" y="-875.4" font-family="Times,serif" font-size="14.00" fill="#000000">Rotating Boxes Transforms</text>
</g>
<g id="clust2" class="cluster">
<title>cluster_1</title>
<polygon fill="none" stroke="#000000" points="1091.3976,-44 1091.3976,-892 5253.3976,-892 5253.3976,-44 1091.3976,-44"/>
<text text-anchor="middle" x="3172.3976" y="-875.4" font-family="Times,serif" font-size="14.00" fill="#000000">Waving Arm Transforms</text>
</g>
<g id="clust3" class="cluster">
<title>cluster_2</title>
</g>
<g id="clust4" class="cluster">
<title>cluster_3</title>
</g>
<g id="clust5" class="cluster">
<title>cluster_4</title>
</g>
<g id="clust6" class="cluster">
<title>cluster_5</title>
</g>
<!-- houseTransform -->
<g id="node1" class="node">
<title>houseTransform</title>
<polygon fill="#8b6508" stroke="#000000" points="751.6463,-823.2 889.1488,-823.2 938.1189,-859.2 702.6762,-859.2 751.6463,-823.2"/>
<text text-anchor="middle" x="820.3976" y="-837" font-family="Times,serif" font-size="14.00" fill="#000000">'house' Transform</text>
</g>
<!-- houseGroup -->
<g id="node2" class="node">
<title>houseGroup</title>
<ellipse fill="#006400" stroke="#000000" cx="550.3976" cy="-769.2" rx="67.1593" ry="18"/>
<text text-anchor="middle" x="550.3976" y="-765" font-family="Times,serif" font-size="14.00" fill="#000000">'house' Group</text>
</g>
<!-- houseTransform&#45;&gt;houseGroup -->
<g id="edge1" class="edge">
<title>houseTransform-&gt;houseGroup</title>
<path fill="none" stroke="#006400" d="M752.6137,-823.1243C708.072,-811.2465 650.424,-795.8737 608.0826,-784.5827"/>
<polygon fill="#006400" stroke="#006400" points="608.7732,-781.1446 598.209,-781.9497 606.9695,-787.9082 608.7732,-781.1446"/>
</g>
<!-- house2Transform -->
<g id="node3" class="node">
<title>house2Transform</title>
<polygon fill="#8b6508" stroke="#000000" points="77.7586,-674.4 223.0365,-674.4 274.7758,-710.4 26.0193,-710.4 77.7586,-674.4"/>
<text text-anchor="middle" x="150.3976" y="-688.2" font-family="Times,serif" font-size="14.00" fill="#000000">'house2' Transform</text>
</g>
<!-- houseGroup&#45;&gt;house2Transform -->
<g id="edge2" class="edge">
<title>houseGroup-&gt;house2Transform</title>
<path fill="none" stroke="#8b6508" d="M485.1672,-764.811C418.99,-760.0019 321.2191,-751.8176 284.3976,-743.2 255.2912,-736.388 223.9891,-724.7802 198.9637,-714.3787"/>
<polygon fill="#8b6508" stroke="#8b6508" points="200.2713,-711.1317 189.6975,-710.4639 197.547,-717.5798 200.2713,-711.1317"/>
</g>
<!-- house3Transform -->
<g id="node4" class="node">
<title>house3Transform</title>
<polygon fill="#8b6508" stroke="#000000" points="344.7586,-674.4 490.0365,-674.4 541.7758,-710.4 293.0193,-710.4 344.7586,-674.4"/>
<text text-anchor="middle" x="417.3976" y="-688.2" font-family="Times,serif" font-size="14.00" fill="#000000">'house3' Transform</text>
</g>
<!-- houseGroup&#45;&gt;house3Transform -->
<g id="edge3" class="edge">
<title>houseGroup-&gt;house3Transform</title>
<path fill="none" stroke="#8b6508" d="M521.8657,-752.7245C503.1159,-741.8975 478.3102,-727.5736 457.5755,-715.6005"/>
<polygon fill="#8b6508" stroke="#8b6508" points="459.0809,-712.4282 448.6708,-710.4585 455.5804,-718.4901 459.0809,-712.4282"/>
</g>
<!-- house4Transform -->
<g id="node5" class="node">
<title>house4Transform</title>
<polygon fill="#8b6508" stroke="#000000" points="611.7586,-674.4 757.0365,-674.4 808.7758,-710.4 560.0193,-710.4 611.7586,-674.4"/>
<text text-anchor="middle" x="684.3976" y="-688.2" font-family="Times,serif" font-size="14.00" fill="#000000">'house4' Transform</text>
</g>
<!-- houseGroup&#45;&gt;house4Transform -->
<g id="edge4" class="edge">
<title>houseGroup-&gt;house4Transform</title>
<path fill="none" stroke="#8b6508" d="M579.1439,-752.7245C598.1194,-741.849 623.2512,-727.4451 644.1983,-715.4396"/>
<polygon fill="#8b6508" stroke="#8b6508" points="645.9536,-718.4677 652.8892,-710.4585 642.4728,-712.3945 645.9536,-718.4677"/>
</g>
<!-- house5Transform -->
<g id="node6" class="node">
<title>house5Transform</title>
<polygon fill="#8b6508" stroke="#000000" points="878.7586,-674.4 1024.0365,-674.4 1075.7758,-710.4 827.0193,-710.4 878.7586,-674.4"/>
<text text-anchor="middle" x="951.3976" y="-688.2" font-family="Times,serif" font-size="14.00" fill="#000000">'house5' Transform</text>
</g>
<!-- houseGroup&#45;&gt;house5Transform -->
<g id="edge5" class="edge">
<title>houseGroup-&gt;house5Transform</title>
<path fill="none" stroke="#8b6508" d="M615.5677,-764.8431C681.9978,-760.0454 780.3807,-751.8563 817.3976,-743.2 846.5052,-736.3933 877.8074,-724.7858 902.8324,-714.3832"/>
<polygon fill="#8b6508" stroke="#8b6508" points="904.2494,-717.5842 912.0985,-710.4678 901.5248,-711.1362 904.2494,-717.5842"/>
</g>
<!-- House -->
<g id="node34" class="node">
<title>House</title>
<polygon fill="#8b1a1a" stroke="#000000" points="446.8875,-638.4 387.9077,-638.4 366.9026,-602.4 467.8925,-602.4 446.8875,-638.4"/>
<text text-anchor="middle" x="417.3976" y="-616.2" font-family="Times,serif" font-size="14.00" fill="#000000">House</text>
</g>
<!-- houseGroup&#45;&gt;House -->
<g id="edge45" class="edge">
<title>houseGroup-&gt;House</title>
<path fill="none" stroke="#8b1a1a" d="M483.1523,-768.3578C343.4067,-766.277 33.2113,-759.8039 17.3976,-743.2 -6.143,-718.4831 -5.3178,-691.8774 17.3976,-666.4 40.3908,-640.611 266.4502,-627.219 368.2035,-622.4575"/>
<polygon fill="#8b1a1a" stroke="#8b1a1a" points="368.405,-625.952 378.2341,-621.9973 368.0841,-618.9594 368.405,-625.952"/>
</g>
<!-- house2Transform&#45;&gt;House -->
<g id="edge46" class="edge">
<title>house2Transform-&gt;House</title>
<path fill="none" stroke="#8b1a1a" d="M217.4283,-674.3243C266.0513,-661.2125 330.4682,-643.8416 372.8824,-632.4041"/>
<polygon fill="#8b1a1a" stroke="#8b1a1a" points="373.8958,-635.7559 382.6396,-629.7729 372.0732,-628.9973 373.8958,-635.7559"/>
</g>
<!-- house3Transform&#45;&gt;House -->
<g id="edge47" class="edge">
<title>house3Transform-&gt;House</title>
<path fill="none" stroke="#8b1a1a" d="M417.3976,-674.2314C417.3976,-666.531 417.3976,-657.3743 417.3976,-648.8166"/>
<polygon fill="#8b1a1a" stroke="#8b1a1a" points="420.8977,-648.8132 417.3976,-638.8133 413.8977,-648.8133 420.8977,-648.8132"/>
</g>
<!-- house4Transform&#45;&gt;House -->
<g id="edge48" class="edge">
<title>house4Transform-&gt;House</title>
<path fill="none" stroke="#8b1a1a" d="M617.3668,-674.3243C568.7438,-661.2125 504.3269,-643.8416 461.9127,-632.4041"/>
<polygon fill="#8b1a1a" stroke="#8b1a1a" points="462.7219,-628.9973 452.1555,-629.7729 460.8993,-635.7559 462.7219,-628.9973"/>
</g>
<!-- house5Transform&#45;&gt;House -->
<g id="edge49" class="edge">
<title>house5Transform-&gt;House</title>
<path fill="none" stroke="#8b1a1a" d="M875.3968,-676.5969C856.4977,-672.959 836.2512,-669.3087 817.3976,-666.4 691.0432,-646.9061 541.0633,-631.787 465.7109,-624.7419"/>
<polygon fill="#8b1a1a" stroke="#8b1a1a" points="465.8646,-621.2412 455.5839,-623.8018 465.2175,-628.2112 465.8646,-621.2412"/>
</g>
<!-- l1Transform -->
<g id="node7" class="node">
<title>l1Transform</title>
<polygon fill="#8b6508" stroke="#000000" points="1455.1854,-823.2 1567.6097,-823.2 1607.6485,-859.2 1415.1467,-859.2 1455.1854,-823.2"/>
<text text-anchor="middle" x="1511.3976" y="-837" font-family="Times,serif" font-size="14.00" fill="#000000">'l1' Transform</text>
</g>
<!-- l1Group -->
<g id="node8" class="node">
<title>l1Group</title>
<ellipse fill="#006400" stroke="#000000" cx="2180.3976" cy="-769.2" rx="52.1282" ry="18"/>
<text text-anchor="middle" x="2180.3976" y="-765" font-family="Times,serif" font-size="14.00" fill="#000000">'l1' Group</text>
</g>
<!-- l1Transform&#45;&gt;l1Group -->
<g id="edge6" class="edge">
<title>l1Transform-&gt;l1Group</title>
<path fill="none" stroke="#006400" d="M1579.5371,-833.8666C1710.5581,-819.7657 1995.6501,-789.0831 2120.1743,-775.6814"/>
<polygon fill="#006400" stroke="#006400" points="2120.7206,-779.1429 2130.2886,-774.5929 2119.9715,-772.1831 2120.7206,-779.1429"/>
</g>
<!-- l1BotTransform -->
<g id="node9" class="node">
<title>l1BotTransform</title>
<polygon fill="#8b6508" stroke="#000000" points="4782.6389,-674.4 4926.1563,-674.4 4977.2685,-710.4 4731.5266,-710.4 4782.6389,-674.4"/>
<text text-anchor="middle" x="4854.3976" y="-688.2" font-family="Times,serif" font-size="14.00" fill="#000000">'l1_Bot' Transform</text>
</g>
<!-- l1Group&#45;&gt;l1BotTransform -->
<g id="edge7" class="edge">
<title>l1Group-&gt;l1BotTransform</title>
<path fill="none" stroke="#8b6508" d="M2232.4755,-768.9336C2589.5572,-767.075 4663.9714,-755.7508 4727.3976,-743.2 4755.9835,-737.5434 4786.3451,-725.6375 4810.2119,-714.7731"/>
<polygon fill="#8b6508" stroke="#8b6508" points="4811.7641,-717.9112 4819.3537,-710.5187 4808.8106,-711.5648 4811.7641,-717.9112"/>
</g>
<!-- l1MidTransform -->
<g id="node10" class="node">
<title>l1MidTransform</title>
<polygon fill="#8b6508" stroke="#000000" points="1158.9959,-674.4 1325.7993,-674.4 1385.2046,-710.4 1099.5906,-710.4 1158.9959,-674.4"/>
<text text-anchor="middle" x="1242.3976" y="-688.2" font-family="Times,serif" font-size="14.00" fill="#000000">'l1_Middle' Transform</text>
</g>
<!-- l1Group&#45;&gt;l1MidTransform -->
<g id="edge8" class="edge">
<title>l1Group-&gt;l1MidTransform</title>
<path fill="none" stroke="#8b6508" d="M2128.1962,-768.3904C1963.5064,-765.7101 1461.5133,-756.5311 1389.3976,-743.2 1356.6205,-737.1409 1321.273,-725.113 1293.4556,-714.2817"/>
<polygon fill="#8b6508" stroke="#8b6508" points="1294.5328,-710.9438 1283.9468,-710.5121 1291.9531,-717.4511 1294.5328,-710.9438"/>
</g>
<!-- l1TopTransform -->
<g id="node11" class="node">
<title>l1TopTransform</title>
<polygon fill="#8b6508" stroke="#000000" points="5047.1571,-674.4 5193.638,-674.4 5245.8057,-710.4 4994.9894,-710.4 5047.1571,-674.4"/>
<text text-anchor="middle" x="5120.3976" y="-688.2" font-family="Times,serif" font-size="14.00" fill="#000000">'l1_Top' Transform</text>
</g>
<!-- l1Group&#45;&gt;l1TopTransform -->
<g id="edge9" class="edge">
<title>l1Group-&gt;l1TopTransform</title>
<path fill="none" stroke="#8b6508" d="M2232.5259,-768.9707C2610.3378,-767.2781 4916.0757,-756.4194 4986.3976,-743.2 5016.6431,-737.5143 5048.9454,-725.4627 5074.2554,-714.5245"/>
<polygon fill="#8b6508" stroke="#8b6508" points="5075.8592,-717.6424 5083.5944,-710.4024 5073.0326,-711.2385 5075.8592,-717.6424"/>
</g>
<!-- l2Transform -->
<g id="node12" class="node">
<title>l2Transform</title>
<polygon fill="#8b6508" stroke="#000000" points="2124.1854,-674.4 2236.6097,-674.4 2276.6485,-710.4 2084.1467,-710.4 2124.1854,-674.4"/>
<text text-anchor="middle" x="2180.3976" y="-688.2" font-family="Times,serif" font-size="14.00" fill="#000000">'l2' Transform</text>
</g>
<!-- l1Group&#45;&gt;l2Transform -->
<g id="edge10" class="edge">
<title>l1Group-&gt;l2Transform</title>
<path fill="none" stroke="#8b6508" d="M2180.3976,-750.9995C2180.3976,-741.9132 2180.3976,-730.7176 2180.3976,-720.5549"/>
<polygon fill="#8b6508" stroke="#8b6508" points="2183.8977,-720.4698 2180.3976,-710.4699 2176.8977,-720.4699 2183.8977,-720.4698"/>
</g>
<!-- Circle -->
<g id="node32" class="node">
<title>Circle</title>
<polygon fill="#8b1a1a" stroke="#000000" points="3969.9881,-36 3912.8071,-36 3892.4427,0 3990.3525,0 3969.9881,-36"/>
<text text-anchor="middle" x="3941.3976" y="-13.8" font-family="Times,serif" font-size="14.00" fill="#000000">Circle</text>
</g>
<!-- l1BotTransform&#45;&gt;Circle -->
<g id="edge30" class="edge">
<title>l1BotTransform-&gt;Circle</title>
<path fill="none" stroke="#8b1a1a" d="M4842.5214,-673.98C4826.0831,-646.6643 4798.3976,-593.284 4798.3976,-543.6 4798.3976,-543.6 4798.3976,-543.6 4798.3976,-174 4798.3976,-108.1667 4783.4535,-78.5218 4727.3976,-44 4696.0075,-24.6686 4157.9876,-19.449 3990.6532,-18.29"/>
<polygon fill="#8b1a1a" stroke="#8b1a1a" points="3990.1999,-14.7869 3980.1765,-18.2194 3990.1527,-21.7868 3990.1999,-14.7869"/>
</g>
<!-- Cyllinder -->
<g id="node33" class="node">
<title>Cyllinder</title>
<polygon fill="#8b1a1a" stroke="#000000" points="1942.7558,-36 1864.0393,-36 1836.0053,0 1970.7899,0 1942.7558,-36"/>
<text text-anchor="middle" x="1903.3976" y="-13.8" font-family="Times,serif" font-size="14.00" fill="#000000">Cyllinder</text>
</g>
<!-- l1MidTransform&#45;&gt;Cyllinder -->
<g id="edge40" class="edge">
<title>l1MidTransform-&gt;Cyllinder</title>
<path fill="none" stroke="#8b1a1a" d="M1256.3945,-674.2933C1275.7682,-647.3678 1308.3976,-594.4689 1308.3976,-543.6 1308.3976,-543.6 1308.3976,-543.6 1308.3976,-174 1308.3976,-105.9245 1330.7326,-78.5354 1389.3976,-44 1408.5337,-32.7348 1707.9767,-23.2852 1840.7881,-19.6259"/>
<polygon fill="#8b1a1a" stroke="#8b1a1a" points="1840.9203,-23.1237 1850.8209,-19.3517 1840.729,-16.1263 1840.9203,-23.1237"/>
</g>
<!-- l1TopTransform&#45;&gt;Circle -->
<g id="edge35" class="edge">
<title>l1TopTransform-&gt;Circle</title>
<path fill="none" stroke="#8b1a1a" d="M5083.829,-674.2756C5041.7554,-650.541 4978.3976,-604.6621 4978.3976,-543.6 4978.3976,-543.6 4978.3976,-543.6 4978.3976,-174 4978.3976,-66.1135 4876.5229,-75.6965 4773.3976,-44 4735.8742,-32.4668 4162.5332,-21.7789 3990.092,-18.8118"/>
<polygon fill="#8b1a1a" stroke="#8b1a1a" points="3990.0922,-15.3114 3980.0338,-18.6397 3989.9724,-22.3103 3990.0922,-15.3114"/>
</g>
<!-- l2Group -->
<g id="node13" class="node">
<title>l2Group</title>
<ellipse fill="#006400" stroke="#000000" cx="2180.3976" cy="-620.4" rx="52.1282" ry="18"/>
<text text-anchor="middle" x="2180.3976" y="-616.2" font-family="Times,serif" font-size="14.00" fill="#000000">'l2' Group</text>
</g>
<!-- l2Transform&#45;&gt;l2Group -->
<g id="edge11" class="edge">
<title>l2Transform-&gt;l2Group</title>
<path fill="none" stroke="#006400" d="M2180.3976,-674.2314C2180.3976,-666.531 2180.3976,-657.3743 2180.3976,-648.8166"/>
<polygon fill="#006400" stroke="#006400" points="2183.8977,-648.8132 2180.3976,-638.8133 2176.8977,-648.8133 2183.8977,-648.8132"/>
</g>
<!-- l2BotTransform -->
<g id="node14" class="node">
<title>l2BotTransform</title>
<polygon fill="#8b6508" stroke="#000000" points="1756.6389,-525.6 1900.1563,-525.6 1951.2685,-561.6 1705.5266,-561.6 1756.6389,-525.6"/>
<text text-anchor="middle" x="1828.3976" y="-539.4" font-family="Times,serif" font-size="14.00" fill="#000000">'l2_Bot' Transform</text>
</g>
<!-- l2Group&#45;&gt;l2BotTransform -->
<g id="edge12" class="edge">
<title>l2Group-&gt;l2BotTransform</title>
<path fill="none" stroke="#8b6508" d="M2144.3026,-607.2673C2137.7542,-605.3254 2130.9292,-603.5828 2124.3976,-602.4 2050.4058,-589.0007 2028.8791,-610.3622 1955.3976,-594.4 1927.2287,-588.281 1897.2194,-576.5432 1873.4483,-565.891"/>
<polygon fill="#8b6508" stroke="#8b6508" points="1874.8804,-562.6973 1864.3306,-561.722 1871.9696,-569.0634 1874.8804,-562.6973"/>
</g>
<!-- l2MidTransform -->
<g id="node15" class="node">
<title>l2MidTransform</title>
<polygon fill="#8b6508" stroke="#000000" points="1460.9959,-525.6 1627.7993,-525.6 1687.2046,-561.6 1401.5906,-561.6 1460.9959,-525.6"/>
<text text-anchor="middle" x="1544.3976" y="-539.4" font-family="Times,serif" font-size="14.00" fill="#000000">'l2_Middle' Transform</text>
</g>
<!-- l2Group&#45;&gt;l2MidTransform -->
<g id="edge13" class="edge">
<title>l2Group-&gt;l2MidTransform</title>
<path fill="none" stroke="#8b6508" d="M2144.6319,-607.2001C2137.9888,-605.2382 2131.0462,-603.506 2124.3976,-602.4 2030.5594,-586.7897 1790.1441,-610.5516 1696.3976,-594.4 1662.1551,-588.5004 1625.1495,-576.2677 1596.2253,-565.2848"/>
<polygon fill="#8b6508" stroke="#8b6508" points="1597.3311,-561.9599 1586.7417,-561.619 1594.8073,-568.4891 1597.3311,-561.9599"/>
</g>
<!-- l2TopTransform -->
<g id="node16" class="node">
<title>l2TopTransform</title>
<polygon fill="#8b6508" stroke="#000000" points="4517.1571,-525.6 4663.638,-525.6 4715.8057,-561.6 4464.9894,-561.6 4517.1571,-525.6"/>
<text text-anchor="middle" x="4590.3976" y="-539.4" font-family="Times,serif" font-size="14.00" fill="#000000">'l2_Top' Transform</text>
</g>
<!-- l2Group&#45;&gt;l2TopTransform -->
<g id="edge14" class="edge">
<title>l2Group-&gt;l2TopTransform</title>
<path fill="none" stroke="#8b6508" d="M2215.848,-607.2061C2222.5837,-605.2155 2229.6399,-603.4718 2236.3976,-602.4 2297.4405,-592.7182 4400.6965,-606.0345 4461.3976,-594.4 4490.5102,-588.82 4521.4662,-576.8524 4545.7548,-565.9343"/>
<polygon fill="#8b6508" stroke="#8b6508" points="4547.4307,-569.016 4555.0549,-561.6592 4544.507,-562.6558 4547.4307,-569.016"/>
</g>
<!-- l3Transform -->
<g id="node17" class="node">
<title>l3Transform</title>
<polygon fill="#8b6508" stroke="#000000" points="2476.1854,-525.6 2588.6097,-525.6 2628.6485,-561.6 2436.1467,-561.6 2476.1854,-525.6"/>
<text text-anchor="middle" x="2532.3976" y="-539.4" font-family="Times,serif" font-size="14.00" fill="#000000">'l3' Transform</text>
</g>
<!-- l2Group&#45;&gt;l3Transform -->
<g id="edge15" class="edge">
<title>l2Group-&gt;l3Transform</title>
<path fill="none" stroke="#8b6508" d="M2216.1841,-607.3214C2222.8251,-605.3471 2229.7616,-603.5794 2236.3976,-602.4 2279.3168,-594.7719 2390.2199,-605.4131 2432.3976,-594.4 2454.6404,-588.5921 2477.6346,-577.3377 2495.9571,-566.8952"/>
<polygon fill="#8b6508" stroke="#8b6508" points="2497.96,-569.7783 2504.8176,-561.7022 2494.4204,-563.739 2497.96,-569.7783"/>
</g>
<!-- l2BotTransform&#45;&gt;Circle -->
<g id="edge31" class="edge">
<title>l2BotTransform-&gt;Circle</title>
<path fill="none" stroke="#8b1a1a" d="M1844.4545,-525.3293C1866.2185,-498.6166 1902.3976,-446.4443 1902.3976,-394.8 1902.3976,-394.8 1902.3976,-394.8 1902.3976,-322.8 1902.3976,-5.5967 2249.1673,-110.1449 2559.3976,-44 2625.7763,-29.8472 3654.3847,-20.4016 3892.4688,-18.3981"/>
<polygon fill="#8b1a1a" stroke="#8b1a1a" points="3892.5868,-21.8973 3902.5572,-18.3137 3892.5282,-14.8976 3892.5868,-21.8973"/>
</g>
<!-- l2MidTransform&#45;&gt;Cyllinder -->
<g id="edge41" class="edge">
<title>l2MidTransform-&gt;Cyllinder</title>
<path fill="none" stroke="#8b1a1a" d="M1631.9053,-527.9432C1653.9776,-519.9443 1675.5845,-507.859 1690.3976,-489.6 1717.2303,-456.5253 1704.3976,-437.3903 1704.3976,-394.8 1704.3976,-394.8 1704.3976,-394.8 1704.3976,-174 1704.3976,-99.7727 1791.2122,-55.5433 1850.1601,-34.0668"/>
<polygon fill="#8b1a1a" stroke="#8b1a1a" points="1851.4613,-37.3193 1859.7262,-30.6904 1849.1314,-30.7184 1851.4613,-37.3193"/>
</g>
<!-- l2TopTransform&#45;&gt;Circle -->
<g id="edge36" class="edge">
<title>l2TopTransform-&gt;Circle</title>
<path fill="none" stroke="#8b1a1a" d="M4571.733,-525.2412C4562.9302,-515.4815 4553.124,-502.7917 4547.3976,-489.6 4530.4383,-450.5319 4533.3976,-437.3903 4533.3976,-394.8 4533.3976,-394.8 4533.3976,-394.8 4533.3976,-174 4533.3976,-107.9525 4517.4448,-78.9425 4461.3976,-44 4441.6034,-31.6594 4115.5625,-22.3139 3990.0813,-19.1583"/>
<polygon fill="#8b1a1a" stroke="#8b1a1a" points="3990.0694,-15.657 3979.9853,-18.9069 3989.895,-22.6548 3990.0694,-15.657"/>
</g>
<!-- l3Group -->
<g id="node18" class="node">
<title>l3Group</title>
<ellipse fill="#006400" stroke="#000000" cx="3373.3976" cy="-471.6" rx="52.1282" ry="18"/>
<text text-anchor="middle" x="3373.3976" y="-467.4" font-family="Times,serif" font-size="14.00" fill="#000000">'l3' Group</text>
</g>
<!-- l3Transform&#45;&gt;l3Group -->
<g id="edge16" class="edge">
<title>l3Transform-&gt;l3Group</title>
<path fill="none" stroke="#006400" d="M2594.8977,-531.1054C2607.2828,-528.9817 2620.2191,-527.0104 2632.3976,-525.6 2935.238,-490.527 3017.5546,-544.7053 3317.3976,-489.6 3320.7638,-488.9813 3324.2085,-488.2162 3327.6534,-487.3534"/>
<polygon fill="#006400" stroke="#006400" points="3328.5816,-490.7282 3337.2974,-484.7043 3326.7275,-483.9782 3328.5816,-490.7282"/>
</g>
<!-- l3BotTransform -->
<g id="node19" class="node">
<title>l3BotTransform</title>
<polygon fill="#8b6508" stroke="#000000" points="4254.6389,-376.8 4398.1563,-376.8 4449.2685,-412.8 4203.5266,-412.8 4254.6389,-376.8"/>
<text text-anchor="middle" x="4326.3976" y="-390.6" font-family="Times,serif" font-size="14.00" fill="#000000">'l3_Bot' Transform</text>
</g>
<!-- l3Group&#45;&gt;l3BotTransform -->
<g id="edge17" class="edge">
<title>l3Group-&gt;l3BotTransform</title>
<path fill="none" stroke="#8b6508" d="M3409.1558,-458.3548C3415.7997,-456.3975 3422.7444,-454.6786 3429.3976,-453.6 3513.3066,-439.9961 4110.9053,-461.5635 4194.3976,-445.6 4224.1243,-439.9163 4255.8247,-427.9299 4280.7075,-417.0273"/>
<polygon fill="#8b6508" stroke="#8b6508" points="4282.1939,-420.1967 4289.8919,-412.9173 4279.3345,-413.8073 4282.1939,-420.1967"/>
</g>
<!-- l3MidTransform -->
<g id="node20" class="node">
<title>l3MidTransform</title>
<polygon fill="#8b6508" stroke="#000000" points="2026.9959,-376.8 2193.7993,-376.8 2253.2046,-412.8 1967.5906,-412.8 2026.9959,-376.8"/>
<text text-anchor="middle" x="2110.3976" y="-390.6" font-family="Times,serif" font-size="14.00" fill="#000000">'l3_Middle' Transform</text>
</g>
<!-- l3Group&#45;&gt;l3MidTransform -->
<g id="edge18" class="edge">
<title>l3Group-&gt;l3MidTransform</title>
<path fill="none" stroke="#8b6508" d="M3337.6419,-458.3388C3330.9978,-456.3832 3324.0522,-454.669 3317.3976,-453.6 3201.1072,-434.9199 2373.4781,-465.5426 2257.3976,-445.6 2224.1893,-439.8948 2188.4275,-427.6812 2160.4922,-416.6598"/>
<polygon fill="#8b6508" stroke="#8b6508" points="2161.5382,-413.3081 2150.9545,-412.8237 2158.9261,-419.8025 2161.5382,-413.3081"/>
</g>
<!-- l3TopTransform -->
<g id="node21" class="node">
<title>l3TopTransform</title>
<polygon fill="#8b6508" stroke="#000000" points="3987.1571,-376.8 4133.638,-376.8 4185.8057,-412.8 3934.9894,-412.8 3987.1571,-376.8"/>
<text text-anchor="middle" x="4060.3976" y="-390.6" font-family="Times,serif" font-size="14.00" fill="#000000">'l3_Top' Transform</text>
</g>
<!-- l3Group&#45;&gt;l3TopTransform -->
<g id="edge19" class="edge">
<title>l3Group-&gt;l3TopTransform</title>
<path fill="none" stroke="#8b6508" d="M3409.1608,-458.3849C3415.8041,-456.4246 3422.7474,-454.6969 3429.3976,-453.6 3539.48,-435.4432 3821.9541,-467.2778 3931.3976,-445.6 3960.371,-439.8612 3991.208,-427.9519 4015.465,-417.1062"/>
<polygon fill="#8b6508" stroke="#8b6508" points="4017.1164,-420.1998 4024.7573,-412.8603 4014.2072,-413.833 4017.1164,-420.1998"/>
</g>
<!-- l4Transform -->
<g id="node22" class="node">
<title>l4Transform</title>
<polygon fill="#8b6508" stroke="#000000" points="3317.1854,-376.8 3429.6097,-376.8 3469.6485,-412.8 3277.1467,-412.8 3317.1854,-376.8"/>
<text text-anchor="middle" x="3373.3976" y="-390.6" font-family="Times,serif" font-size="14.00" fill="#000000">'l4' Transform</text>
</g>
<!-- l3Group&#45;&gt;l4Transform -->
<g id="edge20" class="edge">
<title>l3Group-&gt;l4Transform</title>
<path fill="none" stroke="#8b6508" d="M3373.3976,-453.3995C3373.3976,-444.3132 3373.3976,-433.1176 3373.3976,-422.9549"/>
<polygon fill="#8b6508" stroke="#8b6508" points="3376.8977,-422.8698 3373.3976,-412.8699 3369.8977,-422.8699 3376.8977,-422.8698"/>
</g>
<!-- l3BotTransform&#45;&gt;Circle -->
<g id="edge32" class="edge">
<title>l3BotTransform-&gt;Circle</title>
<path fill="none" stroke="#8b1a1a" d="M4252.2759,-378.4269C4231.6156,-370.3741 4211.1011,-358.439 4197.3976,-340.8 4171.2683,-307.1667 4183.3976,-288.5903 4183.3976,-246 4183.3976,-246 4183.3976,-246 4183.3976,-174 4183.3976,-81.4523 4056.8199,-41.1739 3986.7517,-25.9672"/>
<polygon fill="#8b1a1a" stroke="#8b1a1a" points="3987.3494,-22.5167 3976.8456,-23.9023 3985.9209,-29.3694 3987.3494,-22.5167"/>
</g>
<!-- l3MidTransform&#45;&gt;Cyllinder -->
<g id="edge42" class="edge">
<title>l3MidTransform-&gt;Cyllinder</title>
<path fill="none" stroke="#8b1a1a" d="M2100.5017,-376.7961C2076.3742,-332.8992 2012.5971,-216.8575 1959.3976,-120 1945.3975,-94.5108 1929.4352,-65.4352 1918.1442,-44.8663"/>
<polygon fill="#8b1a1a" stroke="#8b1a1a" points="1921.1892,-43.1397 1913.309,-36.0577 1915.0528,-46.5081 1921.1892,-43.1397"/>
</g>
<!-- l3TopTransform&#45;&gt;Circle -->
<g id="edge37" class="edge">
<title>l3TopTransform-&gt;Circle</title>
<path fill="none" stroke="#8b1a1a" d="M4048.3093,-376.4093C4031.5775,-349.1302 4003.3976,-295.7949 4003.3976,-246 4003.3976,-246 4003.3976,-246 4003.3976,-174 4003.3976,-125.9307 3977.661,-75.0458 3959.3513,-44.9272"/>
<polygon fill="#8b1a1a" stroke="#8b1a1a" points="3962.2112,-42.8991 3953.9442,-36.2728 3956.2747,-46.6082 3962.2112,-42.8991"/>
</g>
<!-- l4Group -->
<g id="node23" class="node">
<title>l4Group</title>
<ellipse fill="#006400" stroke="#000000" cx="3373.3976" cy="-322.8" rx="52.1282" ry="18"/>
<text text-anchor="middle" x="3373.3976" y="-318.6" font-family="Times,serif" font-size="14.00" fill="#000000">'l4' Group</text>
</g>
<!-- l4Transform&#45;&gt;l4Group -->
<g id="edge21" class="edge">
<title>l4Transform-&gt;l4Group</title>
<path fill="none" stroke="#006400" d="M3373.3976,-376.6314C3373.3976,-368.931 3373.3976,-359.7743 3373.3976,-351.2166"/>
<polygon fill="#006400" stroke="#006400" points="3376.8977,-351.2132 3373.3976,-341.2133 3369.8977,-351.2133 3376.8977,-351.2132"/>
</g>
<!-- l4BotTransform -->
<g id="node24" class="node">
<title>l4BotTransform</title>
<polygon fill="#8b6508" stroke="#000000" points="3456.6389,-228 3600.1563,-228 3651.2685,-264 3405.5266,-264 3456.6389,-228"/>
<text text-anchor="middle" x="3528.3976" y="-241.8" font-family="Times,serif" font-size="14.00" fill="#000000">'l4_Bot' Transform</text>
</g>
<!-- l4Group&#45;&gt;l4BotTransform -->
<g id="edge22" class="edge">
<title>l4Group-&gt;l4BotTransform</title>
<path fill="none" stroke="#8b6508" d="M3403.2831,-307.9922C3425.8477,-296.8118 3457.2045,-281.275 3482.881,-268.5527"/>
<polygon fill="#8b6508" stroke="#8b6508" points="3484.6505,-271.5821 3492.057,-264.0062 3481.5426,-265.3098 3484.6505,-271.5821"/>
</g>
<!-- l4MidTransform -->
<g id="node25" class="node">
<title>l4MidTransform</title>
<polygon fill="#8b6508" stroke="#000000" points="2328.9959,-228 2495.7993,-228 2555.2046,-264 2269.5906,-264 2328.9959,-228"/>
<text text-anchor="middle" x="2412.3976" y="-241.8" font-family="Times,serif" font-size="14.00" fill="#000000">'l4_Middle' Transform</text>
</g>
<!-- l4Group&#45;&gt;l4MidTransform -->
<g id="edge23" class="edge">
<title>l4Group-&gt;l4MidTransform</title>
<path fill="none" stroke="#8b6508" d="M3321.1581,-322.0422C3153.2295,-319.4796 2633.8316,-310.524 2559.3976,-296.8 2526.6177,-290.7561 2491.2701,-278.7288 2463.4533,-267.8939"/>
<polygon fill="#8b6508" stroke="#8b6508" points="2464.5308,-264.5561 2453.9448,-264.123 2461.9502,-271.063 2464.5308,-264.5561"/>
</g>
<!-- l4TopTransform -->
<g id="node26" class="node">
<title>l4TopTransform</title>
<polygon fill="#8b6508" stroke="#000000" points="3721.1571,-228 3867.638,-228 3919.8057,-264 3668.9894,-264 3721.1571,-228"/>
<text text-anchor="middle" x="3794.3976" y="-241.8" font-family="Times,serif" font-size="14.00" fill="#000000">'l4_Top' Transform</text>
</g>
<!-- l4Group&#45;&gt;l4TopTransform -->
<g id="edge24" class="edge">
<title>l4Group-&gt;l4TopTransform</title>
<path fill="none" stroke="#8b6508" d="M3409.1782,-309.6875C3415.8197,-307.7167 3422.758,-305.9589 3429.3976,-304.8 3530.5957,-287.1359 3559.6864,-317.057 3660.3976,-296.8 3690.2442,-290.7967 3722.1741,-278.9256 3747.3763,-268.1681"/>
<polygon fill="#8b6508" stroke="#8b6508" points="3748.9159,-271.3151 3756.6875,-264.1142 3746.1216,-264.897 3748.9159,-271.3151"/>
</g>
<!-- l5Transform -->
<g id="node27" class="node">
<title>l5Transform</title>
<polygon fill="#8b6508" stroke="#000000" points="3162.1854,-228 3274.6097,-228 3314.6485,-264 3122.1467,-264 3162.1854,-228"/>
<text text-anchor="middle" x="3218.3976" y="-241.8" font-family="Times,serif" font-size="14.00" fill="#000000">'l5' Transform</text>
</g>
<!-- l4Group&#45;&gt;l5Transform -->
<g id="edge25" class="edge">
<title>l4Group-&gt;l5Transform</title>
<path fill="none" stroke="#8b6508" d="M3342.2007,-308.241C3334.406,-304.5515 3326.0792,-300.5658 3318.3976,-296.8 3300.1042,-287.8318 3280.0606,-277.709 3262.753,-268.8733"/>
<polygon fill="#8b6508" stroke="#8b6508" points="3263.9442,-265.5514 3253.4476,-264.1125 3260.7559,-271.7831 3263.9442,-265.5514"/>
</g>
<!-- l4BotTransform&#45;&gt;Circle -->
<g id="edge33" class="edge">
<title>l4BotTransform-&gt;Circle</title>
<path fill="none" stroke="#8b1a1a" d="M3550.5176,-227.7157C3599.2487,-188.3332 3720.8204,-94.9431 3837.3976,-44 3855.8159,-35.9514 3877.2035,-30.0663 3895.777,-25.9518"/>
<polygon fill="#8b1a1a" stroke="#8b1a1a" points="3896.7063,-29.3329 3905.7694,-23.8457 3895.2625,-22.4834 3896.7063,-29.3329"/>
</g>
<!-- l4MidTransform&#45;&gt;Cyllinder -->
<g id="edge43" class="edge">
<title>l4MidTransform-&gt;Cyllinder</title>
<path fill="none" stroke="#8b1a1a" d="M2372.0317,-227.9186C2279.55,-186.4927 2052.6077,-84.8368 1952.3617,-39.9328"/>
<polygon fill="#8b1a1a" stroke="#8b1a1a" points="1953.6218,-36.6623 1943.0647,-35.7684 1950.7602,-43.0506 1953.6218,-36.6623"/>
</g>
<!-- l4TopTransform&#45;&gt;Circle -->
<g id="edge38" class="edge">
<title>l4TopTransform-&gt;Circle</title>
<path fill="none" stroke="#8b1a1a" d="M3799.1754,-227.8925C3810.0596,-189.6575 3839.978,-99.6407 3893.3976,-44 3895.8343,-41.4619 3898.5738,-39.1132 3901.4769,-36.9523"/>
<polygon fill="#8b1a1a" stroke="#8b1a1a" points="3903.5475,-39.7796 3909.9765,-31.3583 3899.6991,-33.9323 3903.5475,-39.7796"/>
</g>
<!-- l5Group -->
<g id="node28" class="node">
<title>l5Group</title>
<ellipse fill="#006400" stroke="#000000" cx="3073.3976" cy="-174" rx="52.1282" ry="18"/>
<text text-anchor="middle" x="3073.3976" y="-169.8" font-family="Times,serif" font-size="14.00" fill="#000000">'l5' Group</text>
</g>
<!-- l5Transform&#45;&gt;l5Group -->
<g id="edge26" class="edge">
<title>l5Transform-&gt;l5Group</title>
<path fill="none" stroke="#006400" d="M3181.8079,-227.8314C3160.7604,-217.3802 3134.3107,-204.2465 3112.8062,-193.5684"/>
<polygon fill="#006400" stroke="#006400" points="3114.131,-190.3186 3103.6178,-189.0059 3111.0178,-196.5882 3114.131,-190.3186"/>
</g>
<!-- l5BotTransform -->
<g id="node29" class="node">
<title>l5BotTransform</title>
<polygon fill="#8b6508" stroke="#000000" points="3194.6389,-84 3338.1563,-84 3389.2685,-120 3143.5266,-120 3194.6389,-84"/>
<text text-anchor="middle" x="3266.3976" y="-97.8" font-family="Times,serif" font-size="14.00" fill="#000000">'l5_Bot' Transform</text>
</g>
<!-- l5Group&#45;&gt;l5BotTransform -->
<g id="edge27" class="edge">
<title>l5Group-&gt;l5BotTransform</title>
<path fill="none" stroke="#8b6508" d="M3108.7967,-160.7941C3136.7277,-150.3742 3176.2602,-135.6264 3208.7435,-123.5083"/>
<polygon fill="#8b6508" stroke="#8b6508" points="3209.9931,-126.7778 3218.139,-120.0032 3207.5464,-120.2193 3209.9931,-126.7778"/>
</g>
<!-- l5MidTransform -->
<g id="node30" class="node">
<title>l5MidTransform</title>
<polygon fill="#8b6508" stroke="#000000" points="2630.9959,-84 2797.7993,-84 2857.2046,-120 2571.5906,-120 2630.9959,-84"/>
<text text-anchor="middle" x="2714.3976" y="-97.8" font-family="Times,serif" font-size="14.00" fill="#000000">'l5_Middle' Transform</text>
</g>
<!-- l5Group&#45;&gt;l5MidTransform -->
<g id="edge28" class="edge">
<title>l5Group-&gt;l5MidTransform</title>
<path fill="none" stroke="#8b6508" d="M3028.2935,-164.9541C2974.9841,-154.2625 2884.6699,-136.1493 2814.5657,-122.0894"/>
<polygon fill="#8b6508" stroke="#8b6508" points="2814.8689,-118.5806 2804.3759,-120.0458 2813.4923,-125.4439 2814.8689,-118.5806"/>
</g>
<!-- l5TopTransform -->
<g id="node31" class="node">
<title>l5TopTransform</title>
<polygon fill="#8b6508" stroke="#000000" points="2927.1571,-84 3073.638,-84 3125.8057,-120 2874.9894,-120 2927.1571,-84"/>
<text text-anchor="middle" x="3000.3976" y="-97.8" font-family="Times,serif" font-size="14.00" fill="#000000">'l5_Top' Transform</text>
</g>
<!-- l5Group&#45;&gt;l5TopTransform -->
<g id="edge29" class="edge">
<title>l5Group-&gt;l5TopTransform</title>
<path fill="none" stroke="#8b6508" d="M3056.0976,-156.937C3047.1605,-148.1223 3036.0765,-137.1902 3026.1551,-127.4047"/>
<polygon fill="#8b6508" stroke="#8b6508" points="3028.4269,-124.7294 3018.8495,-120.1992 3023.5114,-129.7132 3028.4269,-124.7294"/>
</g>
<!-- l5BotTransform&#45;&gt;Circle -->
<g id="edge34" class="edge">
<title>l5BotTransform-&gt;Circle</title>
<path fill="none" stroke="#8b1a1a" d="M3297.0297,-83.9766C3322.0344,-70.275 3358.7697,-52.3973 3393.3976,-44 3441.1709,-32.415 3768.2736,-22.6064 3893.1177,-19.2432"/>
<polygon fill="#8b1a1a" stroke="#8b1a1a" points="3893.2535,-22.7409 3903.1564,-18.9749 3893.0665,-15.7434 3893.2535,-22.7409"/>
</g>
<!-- l5MidTransform&#45;&gt;Cyllinder -->
<g id="edge44" class="edge">
<title>l5MidTransform-&gt;Cyllinder</title>
<path fill="none" stroke="#8b1a1a" d="M2620.0172,-90.3155C2518.6346,-77.9619 2352.7522,-58.3193 2209.3976,-44 2124.3914,-35.509 2025.9202,-27.4615 1964.1407,-22.6287"/>
<polygon fill="#8b1a1a" stroke="#8b1a1a" points="1964.0384,-19.1102 1953.7967,-21.8227 1963.4946,-26.089 1964.0384,-19.1102"/>
</g>
<!-- l5TopTransform&#45;&gt;Circle -->
<g id="edge39" class="edge">
<title>l5TopTransform-&gt;Circle</title>
<path fill="none" stroke="#8b1a1a" d="M3032.5432,-83.9797C3058.9849,-70.1819 3097.911,-52.1724 3134.3976,-44 3208.0562,-27.5016 3729.0684,-20.36 3892.4912,-18.5096"/>
<polygon fill="#8b1a1a" stroke="#8b1a1a" points="3892.7696,-22.0068 3902.7299,-18.3953 3892.6914,-15.0073 3892.7696,-22.0068"/>
</g>
<!-- CVV -->
<g id="node35" class="node">
<title>CVV</title>
<ellipse fill="#006400" stroke="#000000" cx="1232.3976" cy="-918" rx="31.339" ry="18"/>
<text text-anchor="middle" x="1232.3976" y="-913.8" font-family="Times,serif" font-size="14.00" fill="#000000">CVV</text>
</g>
<!-- CVV&#45;&gt;houseTransform -->
<g id="edge51" class="edge">
<title>CVV-&gt;houseTransform</title>
<path fill="none" stroke="#000000" d="M1202.1095,-912.6653C1172.7633,-907.4737 1127.0078,-899.3192 1087.3976,-892 1033.4612,-882.0336 973.4567,-870.6442 924.0154,-861.1789"/>
<polygon fill="#000000" stroke="#000000" points="924.4327,-857.6953 913.9527,-859.2511 923.1155,-864.5702 924.4327,-857.6953"/>
</g>
<!-- CVV&#45;&gt;l1Transform -->
<g id="edge50" class="edge">
<title>CVV-&gt;l1Transform</title>
<path fill="none" stroke="#000000" d="M1260.9443,-910.142C1301.7746,-898.9027 1378.292,-877.8398 1436.051,-861.9406"/>
<polygon fill="#000000" stroke="#000000" points="1437.1639,-865.2645 1445.8764,-859.2359 1435.3061,-858.5155 1437.1639,-865.2645"/>
</g>
</g>
</svg>